<svg xmlns="http://www.w3.org/2000/svg" aria-hidden="true" style="position:absolute;width:0;height:0;overflow:hidden">
  <defs>
    <symbol id="icon-001" viewBox="0 0 32 32">
      <path fill="#d6b1ff" d="M24 13.333h8L28 8l-4 5.333zm0 5.334h8L28 24l-4-5.333z" style="fill:var(--color1, #d6b1ff)"/>
      <path fill="#02897a" d="M1.333 0h8v32h-8a1.334 1.334 0 0 1-1.334-1.334V1.333A1.335 1.335 0 0 1 1.333-.001zM12 0h8a1.335 1.335 0 0 1 1.334 1.334v29.333A1.334 1.334 0 0 1 20 32.001h-8v-32z" style="fill:var(--color2, #02897a)"/>
    </symbol>
    <symbol id="icon-002" viewBox="0 0 32 32">
      <path fill="#d6b1ff" d="M28 32H16a1.334 1.334 0 0 1-1.334-1.334v-2.667A1.334 1.334 0 0 1 16 26.665h12a1.334 1.334 0 0 1 1.334 1.334v2.667A1.334 1.334 0 0 1 28 32z" style="fill:var(--color1, #d6b1ff)"/>
      <path fill="#11b5e4" d="M28 0H4a1.335 1.335 0 0 0-1.334 1.334v2.667A1.335 1.335 0 0 0 4 5.335h24a1.335 1.335 0 0 0 1.334-1.334V1.334A1.334 1.334 0 0 0 28 0zM28 8H4a1.335 1.335 0 0 0-1.334 1.334v13.333A1.335 1.335 0 0 0 4 24.001h24a1.334 1.334 0 0 0 1.334-1.334V9.334A1.334 1.334 0 0 0 28 8z" style="fill:var(--color3, #11b5e4)"/>
    </symbol>
    <symbol id="icon-003" viewBox="0 0 32 32">
      <path fill="#d6b1ff" d="M6.667 1.333h-4a1.335 1.335 0 0 0-1.334 1.334v26.667a1.335 1.335 0 0 0 1.334 1.334h4V1.335z" style="fill:var(--color1, #d6b1ff)"/>
      <path fill="#f03e3d" d="M9.333 30.667h13.333V1.334H9.333v29.333zM16 25.333a1.334 1.334 0 1 1 0-2.667 1.334 1.334 0 0 1 0 2.667zm0-18.666a1.335 1.335 0 0 1 .943 2.277A1.334 1.334 0 1 1 16 6.667zm0 8a1.334 1.334 0 1 1 0 2.667 1.334 1.334 0 0 1 0-2.667zM29.333 1.333h-4v29.333h4a1.334 1.334 0 0 0 1.334-1.334V2.665a1.334 1.334 0 0 0-1.334-1.334z" style="fill:var(--color4, #f03e3d)"/>
    </symbol>
    <symbol id="icon-Activity" viewBox="0 0 32 32">
      <path d="M17.854 4.024 8.615 6.895c-3.367 1.046-4.803 3.681-3.97 7.285l2.283 9.881c.833 3.604 3.212 5.053 6.579 4.007l9.239-2.871c3.367-1.046 4.794-3.678 3.961-7.283l-2.283-9.881c-.833-3.604-3.203-5.056-6.57-4.01z" style="fill:var(--color5, #000)"/>
      <path fill="#e31313" d="m17.192 8.444-6.103 1.896c-2.224.691-3.187 2.366-2.664 4.632l1.435 6.212c.523 2.266 2.08 3.158 4.304 2.467l6.103-1.896c2.224-.691 3.182-2.364 2.658-4.63l-1.435-6.212c-.523-2.266-2.074-3.16-4.298-2.469z" opacity=".5" style="fill:var(--color6, #e31313)"/>
      <path fill="#f03e3d" stroke="#000" stroke-linecap="round" stroke-linejoin="round" stroke-width=".478" d="M23.948 8.977h-8.731c-1.773 0-3.268.691-4.316 1.903-1.046 1.209-1.633 2.919-1.633 4.938v9.112c0 2.014.588 3.721 1.633 4.928 1.048 1.21 2.543 1.902 4.316 1.902h8.731c1.773 0 3.265-.692 4.311-1.902 1.043-1.207 1.628-2.915 1.628-4.928v-9.112c0-2.019-.585-3.729-1.628-4.938-1.046-1.212-2.538-1.904-4.311-1.904z" style="fill:var(--color4, #f03e3d);stroke:var(--color5, #000)"/>
      <path d="M30.717 7.578c-.817 0-1.48.734-1.48 1.639s.663 1.639 1.48 1.639 1.48-.734 1.48-1.639c0-.435-.156-.851-.433-1.159s-.654-.48-1.046-.48zM24.846 18.394l-2.878 4.113c-.121.179-.303.295-.503.323s-.402-.036-.56-.176l-2.763-2.399-2.488 3.565c-.18.317-.531.459-.854.346s-.536-.452-.519-.826a.864.864 0 0 1 .159-.509l2.976-4.25c.12-.177.299-.294.497-.323s.399.031.557.167l2.763 2.409 2.426-3.457c.117-.178.294-.297.491-.328s.397.027.554.161c.325.282.388.799.142 1.165v.02z" style="fill:var(--color5, #000)"/>
    </symbol>
    <symbol id="icon-burger" viewBox="0 0 32 32">
      <path
        d="M4.799 8.001a1.6 1.6 0 0 1 1.6-1.6h19.2a1.6 1.6 0 0 1 0 3.2h-19.2a1.6 1.6 0 0 1-1.6-1.6zM4.799 16.001a1.6 1.6 0 0 1 1.6-1.6h19.2a1.6 1.6 0 0 1 0 3.2h-19.2a1.6 1.6 0 0 1-1.6-1.6zM4.799 24.001a1.6 1.6 0 0 1 1.6-1.6h19.2a1.6 1.6 0 0 1 0 3.2h-19.2a1.6 1.6 0 0 1-1.6-1.6z" />
    </symbol>
    <symbol id="icon-Chart" viewBox="0 0 32 32">
      <path d="M16.51 3.285 7.437 5.879c-3.306.945-4.678 3.479-3.792 7.007l2.429 9.67c.886 3.527 3.261 4.99 6.567 4.045l9.073-2.594c3.306-.945 4.669-3.477 3.783-7.004l-2.429-9.67c-.886-3.527-3.252-4.993-6.559-4.048z" style="fill:var(--color5, #000)"/>
      <path fill="#11b5e4" d="m20.98 15.958-1.648-6.659c-.598-2.415-2.093-3.498-4.06-2.944L8.611 8.231c-1.999.563-2.773 2.285-2.175 4.701l1.648 6.659c.607 2.454 2.067 3.505 4.066 2.942l6.661-1.876c1.967-.554 2.776-2.244 2.169-4.698z" opacity=".5" style="fill:var(--color3, #11b5e4)"/>
      <path fill="#00acdd" d="M24.397 7.847h-9.392c-3.423 0-5.362 2.069-5.362 5.721v10.011c0 3.652 1.939 5.721 5.362 5.721h9.392c3.423 0 5.353-2.069 5.353-5.721V13.568c0-3.652-1.93-5.721-5.353-5.721z" style="fill:var(--color7, #00acdd)"/>
      <path d="M24.397 8.297a.451.451 0 0 0 0-.902v.901zm0-.901a.451.451 0 0 0 0 .902v-.901zm0 0h-9.392v.901h9.392v-.901zm-9.392 0c-1.803 0-3.275.548-4.293 1.634-1.014 1.082-1.519 2.636-1.519 4.538h.901c0-1.75.464-3.056 1.276-3.922.807-.862 2.016-1.348 3.635-1.348v-.901zm-5.812 6.171v10.011h.901V13.567h-.901zm0 10.012c0 1.902.506 3.456 1.519 4.538 1.018 1.086 2.49 1.634 4.293 1.634v-.901c-1.619 0-2.828-.487-3.635-1.348-.812-.866-1.276-2.172-1.276-3.922h-.901zm5.812 6.171h9.392v-.901h-9.392v.901zm9.392 0c1.803 0 3.274-.548 4.289-1.634 1.011-1.082 1.514-2.636 1.514-4.538h-.901c0 1.75-.462 3.056-1.271 3.922-.805.861-2.012 1.348-3.631 1.348v.901zm5.804-6.171V13.568H29.3v10.011h.901zm0-10.012c0-1.901-.503-3.456-1.514-4.538-1.016-1.086-2.486-1.634-4.289-1.634v.901c1.619 0 2.825.487 3.631 1.348.809.866 1.271 2.172 1.271 3.922h.901zM19.732 12.233c-.456 0-.831.4-.831.896v10.888c0 .486.375.887.831.887.465 0 .84-.4.84-.887V13.129c0-.496-.375-.896-.84-.896zm-4.691 3.518c-.456 0-.831.4-.831.896v7.37c0 .486.375.887.831.887.465 0 .84-.4.84-.887v-7.37c0-.496-.375-.896-.84-.896zm8.48 4.787c0-.496.375-.896.84-.896.456 0 .831.4.831.896v3.48c0 .486-.375.887-.84.887-.456 0-.831-.4-.831-.887v-3.48z" style="fill:var(--color5, #000)"/>
      <path d="M19.081 13.129c0-.409.307-.716.651-.716v-.361c-.567 0-1.011.494-1.011 1.076h.361zm0 10.888V13.129h-.361v10.888h.361zm.651.707c-.345 0-.651-.309-.651-.706h-.361c0 .575.445 1.067 1.011 1.067v-.361zm.66-.707c0 .397-.304.706-.66.706v.361c.574 0 1.02-.491 1.02-1.067h-.361zm0-10.888v10.888h.361V13.129h-.361zm-.66-.716c.354 0 .66.309.66.716h.361c0-.584-.445-1.076-1.02-1.076v.361zm-5.342 4.235c0-.409.307-.716.651-.716v-.361c-.567 0-1.011.494-1.011 1.077h.361zm0 7.37v-7.37h-.361v7.37h.361zm.651.706c-.345 0-.651-.309-.651-.706h-.361c0 .575.445 1.067 1.011 1.067v-.361zm.659-.706c0 .397-.304.706-.66.706v.361c.574 0 1.02-.491 1.02-1.067h-.361zm0-7.37v7.37h.361v-7.37H15.7zm-.659-.716c.354 0 .66.309.66.716h.361c0-.584-.445-1.077-1.02-1.077v.361zm9.32 3.529c-.575 0-1.02.492-1.02 1.076h.361c0-.407.305-.716.66-.716v-.361zm1.012 1.077c0-.583-.444-1.076-1.011-1.076v.361c.344 0 .651.307.651.716h.361zm0 3.48v-3.48h-.361v3.48h.361zm-1.02 1.067c.574 0 1.02-.491 1.02-1.067h-.361c0 .397-.304.706-.66.706v.361zm-1.012-1.067c0 .575.445 1.067 1.011 1.067v-.361c-.345 0-.651-.309-.651-.706h-.361zm0-3.48v3.48h.361v-3.48h-.361z" style="fill:var(--color5, #000)"/>
    </symbol>
    <symbol id="icon-cursor" viewBox="0 0 21 32">
      <path d="M19.042 18.067 1.832.857a1.003 1.003 0 0 0-.756-.319C.942.538.79.572.673.622a1.079 1.079 0 0 0-.672.992v25.277c0 .437.269.824.672.992.118.05.269.084.403.084.286 0 .555-.118.756-.319l5.244-5.244 3.21 7.597a1.08 1.08 0 0 0 1.412.571l2.975-1.261a1.08 1.08 0 0 0 .571-1.412l-3.378-8h6.42c.437 0 .824-.269.992-.672a1.038 1.038 0 0 0-.235-1.16z"/>
    </symbol>
    <symbol id="icon-facebook" viewBox="0 0 32 32">
      <path stroke-linecap="round" stroke-linejoin="round" stroke-width="2.667" d="M24 2.667h-4a6.67 6.67 0 0 0-6.667 6.667v4h-4v5.333h4v10.667h5.333V18.667h4l1.333-5.333h-5.333v-4A1.334 1.334 0 0 1 20 8h4V2.667z"/>
    </symbol>
    <symbol id="icon-heart" viewBox="0 0 34 32">
      <path d="M17.067 30.172c.305 0 .61-.114.838-.343l11.867-11.428c.171-.171 4.362-4 4.362-8.571 0-5.581-3.41-8.914-9.105-8.914-3.333 0-6.457 2.629-7.962 4.114C15.562 3.544 12.438.916 9.105.916 3.41.916 0 4.249 0 9.83c0 4.571 4.191 8.4 4.343 8.533L16.229 29.83c.229.229.533.343.838.343z"/>
    </symbol>
    <symbol id="icon-instagram" viewBox="0 0 32 32">
      <path stroke-linecap="round" stroke-linejoin="round" stroke-width="2.667" d="M22.667 2.667H9.334a6.667 6.667 0 0 0-6.667 6.667v13.333a6.667 6.667 0 0 0 6.667 6.667h13.333a6.667 6.667 0 0 0 6.667-6.667V9.334a6.667 6.667 0 0 0-6.667-6.667z"/>
      <path stroke-linecap="round" stroke-linejoin="round" stroke-width="2.667" d="M21.333 15.16a5.338 5.338 0 0 1-6.123 6.049 5.334 5.334 0 1 1 6.124-6.048zM23.333 8.667h.013"/>
    </symbol>
    <symbol id="icon-logo" viewBox="0 0 36 32">
      <path fill="#02bc6b" d="M2.785 30.323C1.253 30.323 0 29.082 0 27.566v-9.639h7.01v-.011h4.213c1.086-.028 2.005-.965 2.005-2.068 0-1.13-.947-2.068-2.089-2.068l-11.14.002v-2.759c0-1.516 1.253-2.757 2.785-2.757h8.355c2.117 0 3.927.744 5.403 2.233 1.504 1.461 2.256 3.253 2.256 5.349 0 2.068-.724 3.86-2.2 5.321s-3.258 2.233-5.347 2.261H5.57v4.136c0 1.516-1.253 2.757-2.785 2.757z" style="fill:var(--color8, #02bc6b)"/>
      <path fill="#02897a" d="M22.309 5.067c3.077 2.959 4.627 6.644 4.627 10.832 0 4.118-1.486 7.8-4.515 10.768l-4.301-4.006c1.884-1.846 2.809-4.068 2.809-6.761 0-2.714-.953-4.933-2.882-6.788l4.262-4.044z" style="fill:var(--color2, #02897a)"/>
      <path fill="#035b81" d="M28.894 0c4.432 4.38 6.662 9.812 6.662 16.046 0 6.136-2.14 11.564-6.499 15.954l-4.151-4.015c3.247-3.27 4.838-7.236 4.838-11.939 0-4.75-1.645-8.713-4.962-11.992L28.895.001z" style="fill:var(--color9, #035b81)"/>
      <path fill="#028e37" d="M0 23.454h5.57v4.113c0 1.516-1.253 2.757-2.785 2.757S0 29.083 0 27.567v-4.113z" style="fill:var(--color10, #028e37)"/>
    </symbol>
    <symbol id="icon-minus" viewBox="0 0 32 32">
      <path d="M0 16C0 7.168 7.168 0 16 0s16 7.168 16 16-7.168 16-16 16S0 24.832 0 16zm8 1.6h16v-3.2H8v3.2z"/>
    </symbol>
    <symbol id="icon-mobile" viewBox="0 0 21 32">
      <path d="M16.935 2.286H3.636c-1.377 0-2.494 1.152-2.494 2.571v22.286c0 1.42 1.117 2.571 2.494 2.571h13.299c1.377 0 2.494-1.152 2.494-2.571V4.857c0-1.42-1.117-2.571-2.494-2.571zm-4.156 23.952c0 .52-.374.905-.831.905H8.577c-.41 0-.784-.386-.784-.857s.374-.857.831-.857h3.325c.457 0 .831.386.831.809zm3.325-3.381H4.468V5.714h11.636v17.143z"/>
    </symbol>
    <symbol id="icon-path" viewBox="0 0 45 32">
      <path d="M42.17.638a2.108 2.108 0 0 0-3.022 0L13.542 26.74 3.699 16.707c-.835-.851-2.188-.851-3.023 0s-.835 2.23 0 3.081L12.03 31.362a2.11 2.11 0 0 0 3.023 0L42.17 3.719a2.208 2.208 0 0 0 0-3.081z"/>
    </symbol>
    <symbol id="icon-plus" viewBox="0 0 32 32">
      <path d="M0 16C0 7.168 7.168 0 16 0s16 7.168 16 16-7.168 16-16 16S0 24.832 0 16zm17.6 1.6H24v-3.2h-6.4V8h-3.2v6.4H8v3.2h6.4V24h3.2v-6.4z"/>
    </symbol>
    <symbol id="icon-sendglass" viewBox="0 0 26 32">
      <path d="M23.664 2.689h1.614a.531.531 0 0 0 .538-.538V1.075a.53.53 0 0 0-.538-.538H.538A.53.53 0 0 0 0 1.075v1.076a.53.53 0 0 0 .538.538h1.613c0 6.219 2.975 10.723 6.269 12.908-3.294 2.185-6.269 6.689-6.269 12.908H.538a.53.53 0 0 0-.538.538v1.076c0 .302.235.538.538.538h24.74a.531.531 0 0 0 .538-.538v-1.076a.531.531 0 0 0-.538-.538h-1.614c0-6.219-2.975-10.723-6.269-12.908 3.294-2.185 6.269-6.689 6.269-12.908zm-2.151 0c0 2.454-.555 4.622-1.429 6.454H5.731c-.874-1.832-1.429-4-1.429-6.454h17.21zm-.958 20.437H5.261c1.244-3.244 3.479-5.546 5.714-6.454h3.866c2.235.908 4.471 3.21 5.714 6.454z"/>
    </symbol>
    <symbol id="icon-star" viewBox="0 0 34 32">
      <path d="M32.404 11.487c-.102-.296-.29-.556-.541-.749s-.553-.308-.869-.333l-9.261-.725L17.725.944c-.128-.281-.335-.52-.598-.688a1.638 1.638 0 0 0-1.764-.001 1.6 1.6 0 0 0-.599.687l-4.008 8.737-9.261.725c-.311.024-.609.136-.857.323s-.437.439-.543.728a1.577 1.577 0 0 0 .394 1.689l6.844 6.57-2.421 10.321c-.074.312-.05.639.068.938s.324.556.592.739a1.64 1.64 0 0 0 1.826.013l8.845-5.807 8.845 5.807a1.646 1.646 0 0 0 1.857-.04c.268-.193.47-.462.579-.771s.118-.644.028-.958l-2.971-10.238 7.369-6.53c.482-.429.66-1.097.452-1.704z"/>
    </symbol>
    <symbol id="icon-play" viewBox="0 0 28 32">
      <path d="M26.088 12.891c2.441 1.354 2.441 4.864 0 6.218L4.933 30.848c-2.37 1.315-5.281-.399-5.281-3.109V4.262c0-2.71 2.911-4.424 5.281-3.109l21.155 11.739z"/>
    </symbol>
    <symbol id="icon-twitter" viewBox="0 0 32 32">
      <path stroke-linecap="round" stroke-linejoin="round" stroke-width="2.667" d="M30.667 4.013a14.542 14.542 0 0 1-4.187 2.04 5.975 5.975 0 0 0-6.637-1.661A5.979 5.979 0 0 0 16 10.053v1.333a14.211 14.211 0 0 1-12-6.04s-5.333 12 6.667 17.333a15.519 15.519 0 0 1-9.333 2.667c12 6.667 26.667 0 26.667-15.333a5.966 5.966 0 0 0-.107-1.107 10.288 10.288 0 0 0 2.773-4.893z"/>
    </symbol>
    <symbol id="icon-wave" viewBox="0 0 41 32">
      <path d="m21.673 12.898 2.674 1.245 3.98-1.184v-2.775c0-4.714-3.98-8.49-8.735-8.49-4.735 0-8.735 3.755-8.735 8.429v12.653c0 1.163-.939 2.082-2.082 2.082s-2.082-.918-2.082-2.082v-5.347H-.001v5.429a8.753 8.753 0 0 0 8.755 8.755c4.796 0 8.755-3.857 8.755-8.633V10.49c0-1.143.939-2.082 2.082-2.082s2.082.939 2.082 2.082v2.408zm10.817 4.531v5.612c0 1.143-.939 2.061-2.082 2.061s-2.082-.918-2.082-2.061v-5.51l-3.98 1.184-2.674-1.245v5.469c0 4.796 3.939 8.674 8.755 8.674a8.753 8.753 0 0 0 8.755-8.755v-5.429h-6.694z"/>
    </symbol>
  </defs>
</svg>
